<?xml version="1.0" encoding="utf-8"?>
<!-- Generator: Adobe Illustrator 28.7.1, SVG Export Plug-In . SVG Version: 9.03 Build 54978)  -->
<svg width="95" height="32" version="1.1" id="Layer_1" xmlns="http://www.w3.org/2000/svg" xmlns:xlink="http://www.w3.org/1999/xlink" x="0px" y="0px"
	 viewBox="0 0 95 32" style="enable-background:new 0 0 95 32;" xml:space="preserve">
<style type="text/css">
	.st0{fill:#0165DC;}
	.st1{enable-background:new    ;}
	.st2{fill:#FFFFFF;}
</style>
<g>
	<g id="Layer_1_00000158730424181817821090000005650942958487731884_">
		<path id="Background" class="st0" d="M17.1,0.2h61.6c9,0,16.2,7.2,16.2,16l0,0c0,8.8-7.3,16-16.2,16H17.1c-8.9,0-16.2-7.1-16.2-16
			l0,0C0.9,7.4,8.2,0.2,17.1,0.2z"/>
		<g id="Text" class="st1">
			<g class="st1">
				<path class="st2" d="M19.9,13h-3c-0.1,0-0.1,0-0.1-0.1L17,12c0-0.1,0-0.1,0.1-0.1H24c0.1,0,0.1,0,0.1,0.1l0.1,0.9
					c0,0.1,0,0.1-0.1,0.1h-3v8.1c0,0.1,0,0.1-0.1,0.1h-1c-0.1,0-0.1,0-0.1-0.1V13z"/>
				<path class="st2" d="M24.9,14.4c0.1,0,0.1,0,0.1,0.1c0.1,0.2,0.1,0.7,0.1,1c0.5-0.7,1.4-1.2,2.3-1.2c0.1,0,0.1,0,0.1,0.1v1
					c0,0.1,0,0.1-0.1,0.1c-1,0-1.8,0.5-2.2,1l0,4.7c0,0.1,0,0.1-0.1,0.1h-1c-0.1,0-0.1,0-0.1-0.1v-4.8c0-0.6,0-1.4-0.1-1.8
					c0-0.1,0-0.1,0.1-0.1H24.9z"/>
				<path class="st2" d="M29.5,14.4C29.5,14.4,29.6,14.4,29.5,14.4c1.3,3.2,1.8,4.7,2,5.4c0.4-1.3,1-2.9,1.9-5.3
					c0,0,0.1-0.1,0.1-0.1h1c0.1,0,0.1,0,0.1,0.1c-1,3-2.5,6.6-3.8,9.6c0,0.1-0.1,0.1-0.2,0.1l-1.1,0.1c-0.1,0-0.1,0,0-0.1
					c0.4-0.9,0.9-2,1.4-3.1c0-0.1,0-0.1,0-0.2c-0.3-0.8-1.7-4.2-2.6-6.4c0-0.1,0-0.1,0.1-0.1H29.5z"/>
				<path class="st2" d="M38.7,12.3c0-0.4,0.3-0.7,0.7-0.7c0.4,0,0.7,0.3,0.7,0.7c0,0.4-0.3,0.7-0.7,0.7S38.7,12.8,38.7,12.3z
					 M38.9,14.5C38.9,14.4,38.9,14.4,38.9,14.5l1.1-0.1c0.1,0,0.1,0,0.1,0.1v6.6c0,0.1,0,0.1-0.1,0.1h-1c-0.1,0-0.1,0-0.1-0.1V14.5z
					"/>
				<path class="st2" d="M45,21c0,0.1,0,0.1-0.1,0.1c-0.3,0.1-0.7,0.2-1.1,0.2c-1,0-1.6-0.5-1.6-1.8v-4.1h-1c-0.1,0-0.1,0-0.1-0.1
					v-0.8c0-0.1,0-0.1,0.1-0.1h1c0-0.5,0.1-1.5,0.1-1.8c0-0.1,0-0.1,0.1-0.1l1-0.2c0.1,0,0.1,0,0.1,0.1c0,0.5-0.1,1.3-0.1,2h1.5
					c0.1,0,0.1,0,0.1,0.1v0.8c0,0.1,0,0.1-0.1,0.1h-1.5v3.9c0,0.6,0.2,1,0.9,1c0.2,0,0.4,0,0.7-0.1c0,0,0.1,0,0.1,0.1V21z"/>
				<path class="st2" d="M49.5,16c0-0.5,0-1.3-0.1-1.5c0-0.1,0-0.1,0.1-0.1h0.9c0.1,0,0.1,0,0.1,0.1c0,0.1,0.1,0.4,0.1,0.7
					c0.6-0.6,1.3-0.9,2.1-0.9c1,0,2.3,0.5,2.3,2.7v4.1c0,0.1,0,0.1-0.1,0.1h-1c-0.1,0-0.1,0-0.1-0.1v-4c0-1.1-0.5-1.8-1.4-1.8
					c-0.7,0-1.3,0.3-1.8,0.9v5c0,0.1,0,0.1-0.1,0.1h-1c-0.1,0-0.1,0-0.1-0.1V16z"/>
				<path class="st2" d="M62.9,17.8c0,2.1-1.3,3.6-3.2,3.6c-2.3,0-3.2-1.8-3.2-3.5c0-2,1.3-3.5,3.2-3.5
					C61.6,14.3,62.9,15.8,62.9,17.8z M57.6,17.8c0,1.4,0.7,2.6,2.1,2.6c1,0,2-0.8,2-2.5c0-1.3-0.6-2.5-2.1-2.5
					C58.4,15.3,57.6,16.3,57.6,17.8z"/>
				<path class="st2" d="M70.1,21.2c-0.1,0-0.1,0-0.1-0.1c-1-3.7-1.3-4.9-1.5-5.5h0c-0.3,1.1-0.8,2.8-1.6,5.5c0,0.1-0.1,0.1-0.1,0.1
					h-1.1c-0.1,0-0.1,0-0.2-0.1l-1.8-6.6c0-0.1,0-0.1,0.1-0.1h1.1c0,0,0.1,0,0.1,0.1c1,3.9,1.3,5.1,1.4,5.6h0
					c0.1-0.5,0.4-1.6,1.6-5.6c0-0.1,0-0.1,0.1-0.1h1.1c0.1,0,0.1,0,0.1,0.1c1.1,4.1,1.3,5.1,1.4,5.6h0c0.2-0.7,0.4-1.8,1.5-5.6
					c0,0,0-0.1,0.1-0.1h1c0.1,0,0.1,0,0.1,0.1l-2,6.6c0,0.1,0,0.1-0.1,0.1H70.1z"/>
			</g>
		</g>
	</g>
</g>
</svg>
